#N canvas 3099 316 716 732 12;
#X obj 278 306 line~;
#X obj 154 396 *~;
#X obj 240 101 bng 15 250 50 0 empty empty empty 17 7 0 10 -262144
-1 -1;
#X obj 239 68 inlet;
#X obj 33 247 osc~;
#X obj 50 63 loadbang;
#X floatatom 51 183 5 0 0 0 - - -;
#X msg 300 245 0 10;
#X obj 145 439 outlet~;
#X obj 239 205 pack 0 f;
#X msg 241 245 \$2 1;
#X obj 50 101 f \$1;
#X obj 110 249 phasor~;
#X obj 129 197 sig~ 890;
#X obj 411 69 inlet;
#X obj 406 151 /;
#X obj 410 95 t f b;
#X obj 318 205 delay 100;
#X obj 440 125 f 250;
#X connect 0 0 1 1;
#X connect 1 0 8 0;
#X connect 2 0 9 0;
#X connect 2 0 17 0;
#X connect 3 0 2 0;
#X connect 5 0 11 0;
#X connect 6 0 4 0;
#X connect 6 0 13 0;
#X connect 7 0 0 0;
#X connect 9 0 10 0;
#X connect 10 0 0 0;
#X connect 11 0 6 0;
#X connect 12 0 1 0;
#X connect 13 0 12 0;
#X connect 14 0 16 0;
#X connect 15 0 9 1;
#X connect 16 0 15 0;
#X connect 16 1 18 0;
#X connect 17 0 7 0;
#X connect 18 0 15 1;
