#N canvas 3559 398 921 685 12;
#X obj 294 399 line~;
#X obj 231 425 *~;
#X obj 354 172 bng 15 250 50 0 empty empty empty 17 7 0 10 -262144
-1 -1;
#X obj 230 63 inlet;
#X obj 182 331 osc~;
#X obj 50 63 loadbang;
#X floatatom 58 238 5 0 0 0 - - -;
#X msg 468 353 0 10;
#X obj 230 494 outlet~;
#X obj 495 212 delay 50;
#X obj 59 201 f \$1;
#X obj 176 129 f \$2;
#X obj 255 306 print foo;
#X obj 275 262 pack 0 f;
#X msg 374 319 \$2 1;
#X connect 0 0 1 1;
#X connect 1 0 8 0;
#X connect 2 0 9 0;
#X connect 2 0 13 0;
#X connect 3 0 2 0;
#X connect 4 0 1 0;
#X connect 5 0 10 0;
#X connect 5 0 11 0;
#X connect 6 0 4 0;
#X connect 7 0 0 0;
#X connect 9 0 7 0;
#X connect 10 0 6 0;
#X connect 11 0 13 1;
#X connect 13 0 12 0;
#X connect 13 0 14 0;
#X connect 14 0 0 0;
