#N canvas 2306 396 921 685 12;
#X obj 214 318 line~;
#X obj 154 396 *~;
#X obj 181 99 bng 15 250 50 0 empty empty empty 17 7 0 10 -262144 -1
-1;
#X obj 180 66 inlet;
#X obj 52 215 osc~;
#X obj 50 63 loadbang;
#X floatatom 51 183 5 0 0 0 - - -;
#X msg 236 257 0 10;
#X obj 145 439 outlet~;
#X obj 95 101 f \$2;
#X obj 174 217 pack 0 f;
#X msg 177 257 \$2 1;
#X obj 50 101 f \$1;
#X obj 255 65 inlet;
#X obj 326 63 inlet;
#X obj 249 151 /;
#X obj 325 89 t f b;
#X obj 355 119 f 100;
#X obj 253 218 delay 50;
#X connect 0 0 1 1;
#X connect 1 0 8 0;
#X connect 2 0 10 0;
#X connect 2 0 18 0;
#X connect 3 0 2 0;
#X connect 4 0 1 0;
#X connect 5 0 9 0;
#X connect 5 0 12 0;
#X connect 6 0 4 0;
#X connect 7 0 0 0;
#X connect 10 0 11 0;
#X connect 11 0 0 0;
#X connect 12 0 6 0;
#X connect 14 0 16 0;
#X connect 15 0 10 1;
#X connect 16 0 15 0;
#X connect 16 1 17 0;
#X connect 17 0 15 1;
#X connect 18 0 7 0;
