#N canvas 2107 191 1015 1091 12;
#X obj 241 116 netreceive -u -b 1337;
#X obj 240 190 moocow/bytes2any;
#X text 214 315 ELEMENT_COMPLETED;
#X text 501 313 ELEMENT_ACTIVATED;
#X obj 153 336 route startEvent endEvent process;
#X obj 513 335 route process;
#X text 694 420 INCIDENT;
#X obj 241 258 route 5 3;
#X obj 695 300 route i;
#X obj 183 757 dac~ 1;
#X obj 254 755 dac~ 2;
#X obj 556 559 send~ dac;
#X obj 204 668 receive~ dac;
#X obj 303 437 ping 440 0.3;
#X obj 514 435 ping 220 0.3;
#X obj 700 460 ping 1046.5 0.15;
#X obj 837 462 ping 1108.73 0.15;
#X connect 0 0 1 0;
#X connect 1 0 7 0;
#X connect 4 2 13 0;
#X connect 5 0 14 0;
#X connect 7 0 4 0;
#X connect 7 1 5 0;
#X connect 7 2 8 0;
#X connect 8 0 15 0;
#X connect 8 0 16 0;
#X connect 12 0 9 0;
#X connect 12 0 10 0;
#X connect 13 0 11 0;
#X connect 14 0 11 0;
#X connect 15 0 11 0;
#X connect 16 0 11 0;
