#N canvas 3136 448 1015 704 12;
#X obj 362 47 netreceive -u -b 1337;
#X obj 362 89 moocow/bytes2any;
#X obj 73 194 route process;
#X obj 591 195 route i;
#X obj 49 621 dac~ 1;
#X obj 120 619 dac~ 2;
#X obj 529 548 send~ dac;
#X obj 70 532 receive~ dac;
#X obj 817 606 ping 1046.5 0.15;
#X obj 815 579 ping 1108.73 0.15;
#X obj 725 421 incident 233.08 0.05;
#X obj 734 318 spigot;
#X obj 717 292 tgl 15 0 empty empty empty 17 7 0 10 -262144 -1 -1 0
1;
#X obj 101 326 spigot;
#X text 742 289 INCIDENT;
#X obj 77 292 tgl 15 0 empty empty empty 17 7 0 10 -262144 -1 -1 1
1;
#X text 814 28 ITENTS 0 CANCEL 1 SEQUENCE_FLOW_TAKEN 2 ELEMENT_ACTIVATING
3 ELEMENT_ACTIVATED 4 ELEMENT_COMPLETING 5 ELEMENT_COMPLETED 6 ELEMENT_TERMINATING
7 ELEMENT_TERMINATED 8 ACTIVATE_ELEMENT 9 COMPLETE_ELEMENT 10 TERMINATE_ELEMENT
;
#X text 494 133 Route intents;
#X obj 568 327 spigot;
#X obj 563 281 tgl 15 0 empty empty empty 17 7 0 10 -262144 -1 -1 1
1;
#X text 105 290 PROCESS ACTIVATED;
#X text 580 278 PROCESS COMPLETED;
#X obj 218 326 spigot;
#X obj 194 292 tgl 15 0 empty empty empty 17 7 0 10 -262144 -1 -1 0
1;
#X obj 208 128 print event;
#X obj 336 193 route exclusiveGateway process;
#X obj 362 130 route 1 3 5;
#X obj 188 193 route sequenceFlow;
#X text 220 285 SEQUENCE FLOW TAKEN;
#X obj 394 326 spigot;
#X obj 370 292 tgl 15 0 empty empty empty 17 7 0 10 -262144 -1 -1 0
1;
#X text 396 285 EXCLUSIVE GATEWAY;
#X obj 101 413 ping 440 0.1;
#X obj 241 413 ping 369.99 0.1;
#X obj 400 418 ping 293.66 0.1;
#X obj 570 421 ping 880 0.1;
#X connect 0 0 1 0;
#X connect 1 0 24 0;
#X connect 1 0 26 0;
#X connect 2 0 13 0;
#X connect 3 0 11 0;
#X connect 7 0 4 0;
#X connect 7 0 5 0;
#X connect 10 0 6 0;
#X connect 11 0 10 0;
#X connect 12 0 11 1;
#X connect 13 0 32 0;
#X connect 15 0 13 1;
#X connect 18 0 35 0;
#X connect 19 0 18 1;
#X connect 22 0 33 0;
#X connect 23 0 22 1;
#X connect 25 0 29 0;
#X connect 25 1 18 0;
#X connect 26 0 27 0;
#X connect 26 1 2 0;
#X connect 26 2 25 0;
#X connect 26 3 3 0;
#X connect 27 0 22 0;
#X connect 29 0 34 0;
#X connect 30 0 29 1;
#X connect 32 0 6 0;
#X connect 33 0 6 0;
#X connect 34 0 6 0;
#X connect 35 0 6 0;
